<svg xmlns="http://www.w3.org/2000/svg" viewBox="0 0 32 32" fill="none">
  <rect width="32" height="32" rx="6" fill="#2563EB"/>
  <path d="M8 12C8 10.8954 8.89543 10 10 10H14C15.1046 10 16 10.8954 16 12V20C16 21.1046 15.1046 22 14 22H10C8.89543 22 8 21.1046 8 20V12Z" fill="white"/>
  <path d="M16 14C16 12.8954 16.8954 12 18 12H22C23.1046 12 24 12.8954 24 14V20C24 21.1046 23.1046 22 22 22H18C16.8954 22 16 21.1046 16 20V14Z" fill="white" opacity="0.8"/>
  <circle cx="12" cy="8" r="2" fill="white"/>
  <circle cx="20" cy="10" r="2" fill="white" opacity="0.8"/>
</svg>
